<svg width="1438" height="458" viewBox="0 0 1438 458" fill="none" xmlns="http://www.w3.org/2000/svg">
<path fill-rule="evenodd" clip-rule="evenodd" d="M155.969 21.1999C155.969 15.0166 150.949 10 144.77 10H60.8215C32.771 10 10 32.771 10 60.818V397.083C10 425.13 32.771 447.905 60.8215 447.905H144.77C150.949 447.905 155.969 442.885 155.969 436.705V21.1999ZM398.788 298.261C386.477 276.173 358.549 258.24 336.461 258.24H207.942C201.145 258.24 198.704 263.758 202.491 270.554L279.075 407.975C291.385 430.067 319.313 448 341.401 448H469.917C476.714 448 479.159 442.482 475.368 435.683L398.788 298.261ZM404.145 112.175C404.145 55.7838 358.361 10 301.966 10H211.81C205.175 10 199.79 15.3845 199.79 22.0196V202.331C199.79 208.966 205.175 214.354 211.81 214.354H301.966C358.361 214.354 404.145 168.571 404.145 112.175Z" fill="url(#paint0_linear_522_2)"/>
<path d="M759.397 132.409C778.507 132.409 794.255 134.714 806.643 139.323C819.127 143.933 828.394 150.895 834.443 160.209C840.493 169.524 843.518 181.288 843.518 195.5C843.518 205.103 841.694 213.505 838.045 220.708C834.395 227.91 829.594 234.007 823.64 239.001C817.686 243.994 811.253 248.076 804.339 251.245L866.277 343H816.726L766.455 262.192H742.688V343H698.035V132.409H759.397ZM756.228 168.996H742.688V225.893H757.092C771.881 225.893 782.444 223.444 788.782 218.547C795.216 213.553 798.433 206.255 798.433 196.652C798.433 186.665 794.976 179.559 788.062 175.334C781.244 171.109 770.632 168.996 756.228 168.996ZM933.257 181.96V343H889.324V181.96H933.257ZM911.362 118.869C917.892 118.869 923.51 120.406 928.215 123.479C932.921 126.455 935.274 132.073 935.274 140.332C935.274 148.494 932.921 154.16 928.215 157.329C923.51 160.402 917.892 161.938 911.362 161.938C904.736 161.938 899.071 160.402 894.365 157.329C889.756 154.16 887.451 148.494 887.451 140.332C887.451 132.073 889.756 126.455 894.365 123.479C899.071 120.406 904.736 118.869 911.362 118.869ZM1017.81 343L956.448 181.96H1002.4L1033.51 273.715C1035.24 279.093 1036.58 284.759 1037.54 290.712C1038.6 296.666 1039.32 301.996 1039.7 306.701H1040.86C1041.15 301.612 1041.82 296.186 1042.87 290.424C1044.03 284.663 1045.51 279.093 1047.34 273.715L1078.31 181.96H1124.26L1062.9 343H1017.81ZM1213.85 178.935C1228.74 178.935 1241.56 181.816 1252.31 187.578C1263.07 193.243 1271.37 201.502 1277.23 212.353C1283.09 223.204 1286.02 236.456 1286.02 252.109V273.427H1182.16C1182.64 285.815 1186.34 295.562 1193.25 302.668C1200.26 309.678 1209.96 313.183 1222.35 313.183C1232.63 313.183 1242.04 312.127 1250.58 310.014C1259.13 307.902 1267.92 304.733 1276.94 300.507V334.501C1268.97 338.439 1260.62 341.319 1251.88 343.144C1243.24 344.969 1232.72 345.881 1220.33 345.881C1204.2 345.881 1189.89 342.904 1177.41 336.95C1165.02 330.996 1155.28 321.922 1148.17 309.726C1141.16 297.53 1137.65 282.166 1137.65 263.632C1137.65 244.811 1140.82 229.158 1147.16 216.674C1153.59 204.095 1162.53 194.684 1173.95 188.442C1185.38 182.104 1198.68 178.935 1213.85 178.935ZM1214.14 210.192C1205.59 210.192 1198.49 212.929 1192.82 218.403C1187.25 223.876 1184.04 232.471 1183.17 244.187H1244.82C1244.73 237.657 1243.53 231.847 1241.22 226.757C1239.01 221.668 1235.65 217.635 1231.14 214.658C1226.72 211.681 1221.05 210.192 1214.14 210.192ZM1389.59 310.878C1394.39 310.878 1399.04 310.398 1403.56 309.438C1408.17 308.478 1412.73 307.277 1417.24 305.837V338.535C1412.54 340.647 1406.68 342.376 1399.67 343.72C1392.75 345.161 1385.17 345.881 1376.91 345.881C1367.31 345.881 1358.66 344.344 1350.98 341.271C1343.4 338.103 1337.39 332.677 1332.98 324.995C1328.65 317.216 1326.49 306.413 1326.49 292.585V214.946H1305.46V196.364L1329.66 181.672L1342.34 147.678H1370.43V181.96H1415.51V214.946H1370.43V292.585C1370.43 298.731 1372.16 303.34 1375.61 306.413C1379.17 309.39 1383.82 310.878 1389.59 310.878Z" fill="white"/>
<defs>
<linearGradient id="paint0_linear_522_2" x1="243.577" y1="10" x2="243.577" y2="448" gradientUnits="userSpaceOnUse">
<stop stop-color="white"/>
<stop offset="1" stop-color="white" stop-opacity="0.7"/>
</linearGradient>
</defs>
</svg>
