<svg width="1552" height="458" viewBox="0 0 1552 458" fill="none" xmlns="http://www.w3.org/2000/svg">
<g clip-path="url(#clip0_532_24)">
<path fill-rule="evenodd" clip-rule="evenodd" d="M155.969 21.1999C155.969 15.0166 150.949 10 144.77 10H60.8215C32.771 10 10 32.771 10 60.818V397.083C10 425.13 32.771 447.905 60.8215 447.905H144.77C150.949 447.905 155.969 442.885 155.969 436.705V21.1999ZM398.788 298.261C386.477 276.173 358.549 258.24 336.461 258.24H207.942C201.145 258.24 198.704 263.758 202.491 270.554L279.075 407.975C291.385 430.067 319.313 448 341.401 448H469.917C476.714 448 479.159 442.482 475.368 435.683L398.788 298.261ZM404.145 112.175C404.145 55.7838 358.361 10 301.966 10H211.81C205.175 10 199.79 15.3845 199.79 22.0196V202.331C199.79 208.966 205.175 214.354 211.81 214.354H301.966C358.361 214.354 404.145 168.571 404.145 112.175Z" fill="url(#paint0_linear_532_24)"/>
<path d="M750.243 273.312V385H696.852V98.0254H766.731C796.305 98.0254 818.093 105.026 832.095 119.028C846.228 133.03 853.294 154.426 853.294 183.215C853.294 219.463 841.059 244.784 816.588 259.179L871.746 385H814.625L769.283 273.312H750.243ZM750.243 227.38H763.983C776.545 227.38 785.575 223.847 791.071 216.78C796.567 209.583 799.315 198.918 799.315 184.785C799.315 170.129 796.371 159.726 790.482 153.575C784.724 147.294 775.76 144.153 763.59 144.153H750.243V227.38ZM907.47 385V98.0254H957.72V385H907.47ZM1141.84 98.0254H1195.62L1128.1 385H1060.18L993.052 98.0254H1046.84L1084.33 273.312C1087.73 288.229 1091.07 309.625 1094.34 337.498C1097.09 313.812 1100.55 292.417 1104.74 273.312L1141.84 98.0254ZM1350.3 385H1220.94V98.0254H1350.3V144.153H1274.33V212.462H1344.8V258.786H1274.33V338.283H1350.3V385ZM1480.24 385H1427.05V144.938H1372.09V98.0254H1535.2V144.938H1480.24V385Z" fill="black"/>
</g>
<defs>
<linearGradient id="paint0_linear_532_24" x1="243.577" y1="10" x2="243.577" y2="448" gradientUnits="userSpaceOnUse">
<stop stop-opacity="0.7"/>
<stop offset="1"/>
</linearGradient>
<clipPath id="clip0_532_24">
<rect width="1552" height="458" fill="white"/>
</clipPath>
</defs>
</svg>
