<svg width="1441" height="458" viewBox="0 0 1441 458" fill="none" xmlns="http://www.w3.org/2000/svg">
<g clip-path="url(#clip0_532_2)">
<path fill-rule="evenodd" clip-rule="evenodd" d="M155.969 21.1999C155.969 15.0166 150.949 10 144.77 10H60.8215C32.771 10 10 32.771 10 60.818V397.083C10 425.13 32.771 447.905 60.8215 447.905H144.77C150.949 447.905 155.969 442.885 155.969 436.705V21.1999ZM398.788 298.261C386.477 276.173 358.549 258.24 336.461 258.24H207.942C201.145 258.24 198.704 263.758 202.491 270.554L279.075 407.975C291.385 430.067 319.313 448 341.401 448H469.917C476.714 448 479.159 442.482 475.368 435.683L398.788 298.261ZM404.145 112.175C404.145 55.7838 358.361 10 301.966 10H211.81C205.175 10 199.79 15.3845 199.79 22.0196V202.331C199.79 208.966 205.175 214.354 211.81 214.354H301.966C358.361 214.354 404.145 168.571 404.145 112.175Z" fill="url(#paint0_linear_532_2)"/>
<path d="M804.593 369L777.659 272.52H747.911V369H692.435V92.424H785.699C805.531 92.424 820.405 95.774 830.321 102.474C840.505 109.174 847.339 118.822 850.823 131.418C854.307 144.014 856.049 160.898 856.049 182.07C856.049 202.17 854.173 218.786 850.421 231.918C846.937 245.05 839.701 254.966 828.713 261.666L862.079 369H804.593ZM772.433 224.682C781.277 224.682 787.575 223.744 791.327 221.868C795.079 219.724 797.491 215.972 798.563 210.612C799.903 204.984 800.573 195.604 800.573 182.472C800.573 169.608 799.903 160.496 798.563 155.136C797.491 149.776 795.079 146.158 791.327 144.282C787.575 142.138 781.277 141.066 772.433 141.066H747.911V224.682H772.433ZM888.265 119.358V70.314H940.927V119.358H888.265ZM888.667 369V163.98H940.525V369H888.667ZM1006.74 369L962.516 163.98H1015.18L1041.71 314.328H1045.33L1070.65 163.98H1122.51L1078.29 369H1006.74ZM1279.38 282.57H1188.13C1188.13 297.846 1188.8 308.432 1190.14 314.328C1191.48 320.224 1194.56 324.11 1199.39 325.986C1204.21 327.862 1212.92 328.8 1225.52 328.8C1235.7 328.8 1252.05 327.996 1274.56 326.388V366.186C1267.32 367.794 1257.94 369.134 1246.42 370.206C1234.9 371.546 1223.91 372.216 1213.46 372.216C1189.6 372.216 1172.18 368.732 1161.2 361.764C1150.48 354.528 1143.64 343.942 1140.69 330.006C1137.75 316.07 1136.27 295.032 1136.27 266.892C1136.27 239.288 1137.75 218.384 1140.69 204.18C1143.64 189.976 1150.34 179.256 1160.79 172.02C1171.25 164.516 1187.73 160.764 1210.24 160.764C1232.22 160.764 1248.03 164.248 1257.68 171.216C1267.59 177.916 1273.62 188.1 1275.77 201.768C1278.18 215.436 1279.38 237.144 1279.38 266.892V282.57ZM1209.84 203.778C1203.14 203.778 1198.31 204.716 1195.37 206.592C1192.69 208.468 1190.81 212.354 1189.74 218.25C1188.67 224.146 1188.13 233.928 1188.13 247.596H1230.74C1230.74 233.928 1230.21 224.146 1229.13 218.25C1228.06 212.086 1226.19 208.2 1223.51 206.592C1220.83 204.716 1216.27 203.778 1209.84 203.778ZM1322.77 369V207.396H1297.44V163.98H1322.77V104.484H1374.63V163.98H1407.19V207.396H1374.63V369H1322.77Z" fill="white"/>
</g>
<defs>
<linearGradient id="paint0_linear_532_2" x1="243.577" y1="10" x2="243.577" y2="448" gradientUnits="userSpaceOnUse">
<stop stop-color="white"/>
<stop offset="1" stop-color="white" stop-opacity="0.7"/>
</linearGradient>
<clipPath id="clip0_532_2">
<rect width="1441" height="458" fill="white"/>
</clipPath>
</defs>
</svg>
