<?xml version="1.0" standalone="no"?>
<!DOCTYPE svg PUBLIC "-//W3C//DTD SVG 20010904//EN"
 "http://www.w3.org/TR/2001/REC-SVG-20010904/DTD/svg10.dtd">
<svg version="1.0" xmlns="http://www.w3.org/2000/svg"
 width="700.000000pt" height="700.000000pt" viewBox="0 0 700.000000 700.000000"
 preserveAspectRatio="xMidYMid meet">
<metadata>
Created by potrace 1.14, written by Peter Selinger 2001-2017
</metadata>
<g transform="translate(0.000000,700.000000) scale(0.100000,-0.100000)"
fill="#000000" stroke="none">
<path d="M2638 6696 c-1 -2 -88 -7 -193 -10 -104 -4 -215 -9 -245 -11 -121 -9
-254 -22 -305 -30 -16 -3 -50 -7 -75 -10 -60 -7 -187 -32 -285 -56 -488 -121
-830 -397 -1015 -819 -96 -219 -156 -495 -186 -850 -3 -36 -7 -85 -9 -110 -28
-327 -28 -2252 0 -2585 2 -27 7 -86 10 -129 3 -44 7 -93 10 -110 11 -83 16
-124 20 -161 3 -22 7 -51 10 -65 3 -14 7 -36 10 -50 16 -84 28 -141 41 -186 8
-28 16 -60 18 -70 23 -112 169 -408 241 -490 6 -7 26 -31 45 -55 178 -220 461
-391 785 -474 67 -17 248 -52 309 -60 27 -3 52 -8 55 -9 3 -2 40 -7 81 -10 41
-3 98 -8 125 -11 210 -23 555 -30 1415 -30 746 0 1144 6 1290 19 25 3 81 7
125 11 44 3 94 8 110 10 193 24 189 24 330 51 539 106 911 380 1114 819 67
144 146 433 165 600 4 28 8 64 11 80 16 106 29 263 42 535 17 360 9 2075 -12
2360 -9 128 -23 275 -31 320 -2 14 -7 48 -10 75 -19 162 -89 427 -150 566
-110 253 -280 460 -497 605 -157 106 -390 200 -592 239 -22 5 -44 9 -50 11
-34 9 -122 24 -172 29 -32 4 -60 8 -63 10 -3 1 -43 6 -90 10 -47 4 -92 9 -101
10 -9 2 -68 6 -130 10 -63 4 -141 9 -174 12 -70 5 -1971 13 -1977 9z"/>
</g>
</svg>
