<?xml version="1.0" encoding="UTF-8"?>
<svg id="Layer_2" data-name="Layer 2" xmlns="http://www.w3.org/2000/svg" viewBox="0 0 376.88 365.53">
  <defs>
    <style>
      .cls-1 {
        fill: #000;
        stroke-width: 0px;
      }
    </style>
  </defs>
  <g id="Layer_1-2" data-name="Layer 1">
    <path class="cls-1" d="M376.58,192.94c-120.32,3.1-239.97-.36-360.56-4.77,120.47.3,240.18-3.33,360.86-5.4-120.67-2.07-240.38-5.7-360.86-5.4,120.59-4.41,240.24-7.88,360.56-4.77-120.33-7.17-239.63-11.02-359.32-6.03,120.03-9.06,239.13-12.26,358.44-4-119.77-12.28-238.67-16.32-357.39-6.62,119.29-13.71,237.86-16.68,355.94-3.25-118.78-17.38-237.04-21.62-354.39-7.2,118.13-18.35,235.95-21.09,352.39-2.49-117.35-22.47-234.76-26.91-350.34-7.77,116.57-23,233.41-25.5,347.8-1.72-115.44-27.55-231.71-32.24-345.06-8.44,114.54-27.58,230.13-29.78,342-.85-113.2-32.63-228.19-37.53-339.01-9.02,112.21-32.21,226.41-34.15,335.45-.04-110.56-37.71-224.07-42.82-332-9.6,109.51-36.82,222.11-38.51,327.95.78-107.54-42.78-219.36-48.09-324.04-10.19,106.44-41.41,217.25-42.84,319.52,1.62-104.15-47.85-214.11-53.37-315.21-10.77,103.04-46,211.87-47.16,310.22,2.48-100.41-52.9-208.29-58.63-305.48-11.37,99.29-50.57,205.97-51.45,300.06,3.36C247.83,23.55,142.23,17.59,49.29,69.45c95.21-55.05,199.49-55.63,288.97,4.32C246.44,10.84,143.32,4.63,54.93,61.03,145.73,1.54,247.45,1.29,332,66.37,245.05-1.47,144.71-8,61.19,52.69c86.06-63.67,184.92-63.52,264.16,6.61C239.14-17.35,135.56-20.9,55.2,55.71c-2.82,2.69-4.3,4.18-6.85,6.88,0,0,0,0,0,0-.06.06-.1.11-.16.18-.07.08-.13.13-.2.21,0,0,0,0,.01,0-2.42,2.57-3.83,4.15-6.11,6.84,0,0,0,0,0,0-.06.07-.1.12-.16.19-.07.08-.11.13-.18.21,0,0,0,0,0,0-2.28,2.69-3.6,4.34-5.72,7.14,0,0,0,0,0,0-.08.11-.14.18-.22.29-.04.05-.07.08-.1.13,0,0,0,0,0,0-2.13,2.81-3.36,4.52-5.33,7.43,0,0,0,0,0,0-.03.05-.06.09-.09.14-.07.11-.13.19-.21.3,0,0,0,0,0,0-1.97,2.91-3.11,4.69-4.92,7.71,0,0,0,0,0,0-.07.12-.13.22-.2.33-.03.05-.05.08-.08.13,0,0,0,0,0,0-1.83,3.04-2.84,4.83-4.49,7.97,0,0,0,0,0,0-1.83,3.45-2.74,5.29-4.3,8.69h0s0,.02-.01.02c-.07.16-.14.3-.21.46,0,0,0,0,0,0-1.49,3.23-2.3,5.13-3.6,8.45,0,0,0,0,0,0-1.44,3.64-2.15,5.59-3.32,9.17,0,0,0,0,0,0-1.3,3.91-1.89,5.9-2.95,9.9h0c-.98,3.65-1.46,5.69-2.26,9.6h0c-.73,3.55-1.1,5.63-1.63,9.24h0c-.62,4.16-.87,6.26-1.23,10.49h0c-.32,3.67-.45,5.82-.56,9.55h0c0,.19-.01.36-.02.54v.02H.08c-.11,3.73-.11,5.92,0,9.65H.08v.02c0,.18.01.35.02.54h0c.11,3.73.23,5.88.56,9.55h0c.37,4.23.61,6.33,1.23,10.49h0c.53,3.61.9,5.69,1.63,9.24h0c.8,3.9,1.28,5.94,2.26,9.6h0c1.06,4.01,1.66,5.99,2.95,9.9,0,0,0,0,0,0,1.18,3.57,1.89,5.52,3.32,9.17,0,0,0,0,0,0,1.3,3.32,2.12,5.22,3.6,8.45t0,0c1.7,3.72,2.61,5.56,4.52,9.17,0,0,0,0,0,0,1.66,3.14,2.67,4.93,4.49,7.97,0,0,0,0,0,0,.03.05.05.08.08.13.07.11.13.21.2.33,0,0,0,0,0,0,1.81,3.02,2.95,4.79,4.92,7.71,0,0,0,0,0,0,.08.11.13.19.21.3.03.05.06.09.09.14,0,0,0,0,0,0,1.97,2.91,3.2,4.63,5.33,7.43,0,0,0,0,0,0,.04.06.07.09.11.15.07.1.13.17.21.27,0,0,0,0,0,0,2.13,2.8,3.45,4.45,5.73,7.14,0,0,0,0,0,0,.07.08.11.13.18.21.06.07.1.12.16.2,0,0,0,0,0,0,2.28,2.69,3.69,4.27,6.11,6.84,0,0,0,0-.01,0,.07.08.13.14.2.21.06.06.1.11.16.18,0,0,0,0,0,0,2.54,2.7,4.02,4.19,6.85,6.88,80.35,76.62,183.93,73.07,270.14-3.59-79.24,70.13-178.1,70.29-264.16,6.61,83.51,60.69,183.86,54.16,270.81-13.68-84.55,65.09-186.27,64.83-277.08,5.34,88.39,56.4,191.51,50.19,283.34-12.74-89.48,59.96-193.78,59.38-288.98,4.32,92.94,51.86,198.54,45.9,294.83-12.03-94.09,54.81-200.77,53.92-300.06,3.36,97.19,47.26,205.07,41.53,305.48-11.37-98.35,49.64-207.19,48.48-310.22,2.48,101.1,42.59,211.05,37.08,315.21-10.77-102.26,44.46-213.08,43.04-319.52,1.62,104.68,37.91,216.5,32.59,324.04-10.19-105.84,39.29-218.45,37.6-327.95.78,107.93,33.22,221.44,28.11,332-9.6-109.04,34.11-223.24,32.17-335.45-.04,110.82,28.51,225.81,23.61,339.01-9.02-111.87,28.94-227.46,26.74-342-.85,113.35,23.81,229.62,19.11,345.06-8.44-114.39,23.78-231.24,21.27-347.8-1.72,115.58,19.14,232.99,14.7,350.34-7.77-116.44,18.61-234.26,15.86-352.39-2.49,117.35,14.42,235.61,10.18,354.39-7.2-118.08,13.43-236.65,10.46-355.94-3.25,118.73,9.71,237.62,5.66,357.39-6.62-119.3,8.26-238.4,5.06-358.44-4,119.69,4.99,238.99,1.14,359.32-6.03Z"/>
  </g>
</svg>